<?xml version="1.0" encoding="UTF-8"?><svg id="a" xmlns="http://www.w3.org/2000/svg" viewBox="0 0 270.12 217.24"><defs><style>.b{fill:#1d1d1b;}</style></defs><path class="b" d="M268.05,41.38c-2.24-3.31-5.96-5.29-9.96-5.29H62.69s-.06,0-.09,0l-3.56-13.52C56.33,4.73,42.24,0,35.1,0H7.5C3.36,0,0,3.36,0,7.5s3.36,7.5,7.5,7.5h27.51c1.9,.08,7.98,1.06,9.24,10.1,.04,.3,.1,.59,.18,.88l33.6,127.5c.02,.07,.04,.14,.06,.22,.18,.62,2.92,9.58,9.73,16.83-5.98,4.82-9.81,12.19-9.81,20.45,0,14.48,11.78,26.26,26.26,26.26s26.26-11.78,26.26-26.26c0-3.93-.87-7.65-2.42-11,4.28,.01,8.92,.02,13.73,.02,13.44,0,28.16-.04,39.9-.09-1.57,3.37-2.46,7.12-2.46,11.07,0,14.48,11.78,26.26,26.26,26.26s26.25-11.78,26.25-26.26-11.78-26.26-26.25-26.26c-.68,0-1.36,.03-2.03,.09-4.66,.03-79.62,.42-95.45-.02-8.25-.23-12.93-8.89-14.72-13.09h127.9c4.93,0,9.31-2.96,11.15-7.53l36.87-91.57h0c1.49-3.71,1.05-7.91-1.19-11.22Zm-51.28,149.6c0,6.21-5.05,11.26-11.25,11.26s-11.26-5.05-11.26-11.26,5.05-11.26,11.26-11.26,11.25,5.05,11.25,11.26Zm-112.51,11.26c-6.21,0-11.26-5.05-11.26-11.26s5.05-11.26,11.26-11.26,11.26,5.05,11.26,11.26-5.05,11.26-11.26,11.26Zm114.95-65.54H89.12l-22.56-85.61H253.68l-34.47,85.61Z"/></svg>