<?xml version="1.0" encoding="UTF-8"?><svg id="a" xmlns="http://www.w3.org/2000/svg" viewBox="0 0 73.65 126.49"><defs><style>.b{fill:#999;}</style></defs><path class="b" d="M63.15,126.49c-2.69,0-5.29-1.06-7.31-3.08L3.06,70.62c-1.97-1.97-3.06-4.59-3.06-7.38s1.09-5.41,3.06-7.38L55.84,3.08C58.88,.04,63.24-.82,67.21,.82s6.44,5.34,6.44,9.64V116.03c0,4.3-2.47,7.99-6.44,9.64-1.33,.55-2.71,.82-4.06,.82Zm0-119.47c-.71,0-1.57,.22-2.36,1.02L8.01,60.82c-.65,.65-1.01,1.51-1.01,2.43s.36,1.78,1.01,2.43h0l52.78,52.79c1.5,1.5,3.24,.95,3.74,.74,.5-.21,2.12-1.04,2.12-3.17V10.46c0-2.13-1.62-2.97-2.12-3.17-.23-.1-.74-.27-1.38-.27Z"/></svg>