<?xml version="1.0" encoding="UTF-8"?><svg id="a" xmlns="http://www.w3.org/2000/svg" viewBox="0 0 142.56 111.59"><defs><style>.b{fill:#1d1d1b;}</style></defs><path class="b" d="M7.5,15h127.56c4.14,0,7.5-3.36,7.5-7.5s-3.36-7.5-7.5-7.5H7.5C3.36,0,0,3.36,0,7.5s3.36,7.5,7.5,7.5Z"/><path class="b" d="M135.06,48.3H7.5c-4.14,0-7.5,3.36-7.5,7.5s3.36,7.5,7.5,7.5h127.56c4.14,0,7.5-3.36,7.5-7.5s-3.36-7.5-7.5-7.5Z"/><path class="b" d="M92.54,96.59H7.5c-4.14,0-7.5,3.36-7.5,7.5s3.36,7.5,7.5,7.5H92.54c4.14,0,7.5-3.36,7.5-7.5s-3.36-7.5-7.5-7.5Z"/></svg>