<?xml version="1.0" encoding="UTF-8"?><svg id="a" xmlns="http://www.w3.org/2000/svg" viewBox="0 0 283.46 283.46"><path d="M228.03,0H55.43C24.82,0,0,24.82,0,55.43V228.03c0,30.61,24.82,55.43,55.43,55.43H228.03c30.61,0,55.43-24.82,55.43-55.43V55.43c0-30.61-24.82-55.43-55.43-55.43Zm35.28,152.28c0,21.16-17.16,38.31-38.32,38.31h-57.88l-18.65,31.52c-3.03,5.13-10.45,5.13-13.48,0l-18.65-31.52H58.47c-21.16,0-38.32-17.16-38.32-38.31V60.32c0-21.16,17.16-38.31,38.32-38.31H225c21.16,0,38.32,17.15,38.32,38.31v91.96Z"/><path d="M74.93,88.41c-5.27,0-10.05,2.42-13.59,6.35v-24.16h-15.14v62.45h15.14v-4.47c3.42,3.73,8.11,6.01,13.59,6.01s19.73-4.41,19.73-23.09c0-12.75-8.84-23.09-19.73-23.09Zm-4.35,33.15c-4.46,0-8.2-3.05-9.24-7.19-.19-.75-.29-1.53-.29-2.34s.1-1.59,.29-2.34c1.04-4.13,4.78-7.18,9.24-7.18,5.26,0,9.53,4.27,9.53,9.53s-4.27,9.53-9.53,9.53Z"/><path d="M121.2,91.22v41.83h-14.75v-40.23c-.57-9.48-6.8-8.91-6.8-8.91v-14.75c19.73,0,21.55,18.74,21.55,22.06Z"/><path d="M156.92,88.6c-13.43,0-25.03,7.47-25.03,22.9,0,12.7,7.91,23.09,25.03,23.09,13.44,0,24.35-8.75,24.34-22.99-.02-12.7-8.5-22.99-24.34-22.99Zm-.79,32.64c-5.16,0-9.35-4.19-9.35-9.36s4.19-9.35,9.35-9.35,9.35,4.19,9.35,9.35-4.19,9.36-9.35,9.36Z"/><path d="M222.67,90.53v4.56c-3.65-3.6-8.4-5.78-13.38-5.78-12.91,0-20.18,9.97-20.18,22.28s7.91,22.28,20.18,22.28c5.13,0,9.82-2.11,13.38-5.6v5.34c0,4.76-3.86,8.62-8.62,8.62h-4.76v12.98h6.5c11.72,0,21.21-9.49,21.21-21.21v-43.49h-14.33Zm0,23.35c-.91,4.21-4.66,7.36-9.14,7.36-5.16,0-9.35-4.19-9.35-9.36s4.19-9.35,9.35-9.35c4.47,0,8.22,3.15,9.14,7.35,.14,.65,.22,1.31,.22,2s-.08,1.35-.22,2Z"/></svg>