<?xml version="1.0" encoding="UTF-8"?><svg id="a" xmlns="http://www.w3.org/2000/svg" viewBox="0 0 73.64 126.48"><defs><style>.b{fill:#999;}</style></defs><path class="b" d="M10.5,126.48c-1.35,0-2.73-.27-4.06-.82-3.97-1.65-6.44-5.34-6.44-9.64V10.46C0,6.16,2.47,2.47,6.44,.82,10.41-.82,14.77,.04,17.81,3.08l52.78,52.78c4.07,4.07,4.07,10.69,0,14.75L17.81,123.4c-2.02,2.02-4.62,3.08-7.31,3.08Zm0-119.47c-.63,0-1.14,.17-1.38,.27-.5,.21-2.12,1.04-2.12,3.17V116.03c0,2.13,1.62,2.96,2.12,3.17,.5,.21,2.24,.76,3.74-.74l52.78-52.78c.65-.65,1-1.51,1-2.43s-.36-1.78-1-2.43L12.86,8.03c-.8-.8-1.66-1.02-2.37-1.02Z"/></svg>