<?xml version="1.0" encoding="UTF-8"?><svg id="a" xmlns="http://www.w3.org/2000/svg" viewBox="0 0 283.46 283.46"><path d="M282.8,82.06c-1.48-47.07-31.22-79.51-81.49-80.95C180.97,.52,164.36,0,141.33,0c-14.23,0-30.92,.2-52.45,.7C29.52,2.09,1.58,35.7,.32,82.06c-.73,27.02,0,119.31,0,119.31,4.12,53.91,35.64,79.66,81.49,81.36,0,0,39.85,.75,75.26,.75,17.7,0,34.3-.19,44.24-.75,49.21-2.77,77.86-28.88,81.49-81.36,1.12-16.28,.62-99.51,0-119.31Zm-25.73,117.53c-.71,10.28-2.58,19.25-5.55,26.65-2.61,6.51-6.02,11.75-10.4,16.03-4.32,4.21-9.54,7.44-15.97,9.88-7.1,2.69-15.61,4.32-25.29,4.87-8.31,.47-22.71,.71-42.78,.71-33.31,0-71.12-.68-74.53-.74-17-.67-30.24-5.39-39.37-14.03-9.74-9.23-15.48-23.59-17.07-42.7-.07-9.68-.67-92.65,0-117.49,.47-17.24,5.46-30.67,14.84-39.92,4.8-4.74,10.93-8.51,18.21-11.21,8.54-3.16,18.75-4.91,30.34-5.18,19.99-.47,36.95-.69,51.85-.69,21.39,0,37.4,.46,55.93,1l3.3,.1c9.26,.27,17.61,1.87,24.82,4.78,6.44,2.6,12.01,6.25,16.53,10.87,9.35,9.53,14.57,23.49,15.1,40.38,.64,20.51,1.07,101.98,.05,116.73Z"/><path d="M141.63,69.32c-40.16,0-72.71,32.5-72.71,72.59s32.55,72.59,72.71,72.59,72.71-32.5,72.71-72.59-32.55-72.59-72.71-72.59Zm33.18,105.72c-8.86,8.85-20.65,13.72-33.18,13.72s-24.32-4.87-33.18-13.72-13.74-20.61-13.74-33.13,4.88-24.28,13.74-33.13c8.86-8.85,20.65-13.72,33.18-13.72s24.32,4.87,33.18,13.72c8.86,8.85,13.74,20.61,13.74,33.13s-4.88,24.28-13.74,33.13Z"/><ellipse cx="217.38" cy="66.28" rx="17.01" ry="16.99"/></svg>